<svg width="516" height="338" viewBox="0 0 516 338" fill="none" xmlns="http://www.w3.org/2000/svg">
<circle cx="446" cy="308" r="30" fill="#173529"/>
<circle cx="446" cy="208" r="30" fill="#173529"/>
<circle cx="320" cy="108" r="30" fill="#173529"/>
<circle cx="70" cy="308" r="30" fill="#173529"/>
<circle cx="70" cy="208" r="30" fill="#173529"/>
<circle cx="70" cy="108" r="30" fill="#173529"/>
<rect x="8" y="8" width="125" height="100" stroke="#173529" stroke-width="15"/>
<rect x="8" y="208" width="125" height="100" stroke="#173529" stroke-width="15"/>
<rect x="8" y="108" width="125" height="100" stroke="#173529" stroke-width="15"/>
<rect x="133" y="8" width="125" height="100" stroke="#173529" stroke-width="15"/>
<rect x="133" y="208" width="125" height="100" stroke="#173529" stroke-width="15"/>
<rect x="133" y="108" width="125" height="100" stroke="#173529" stroke-width="15"/>
<rect x="258" y="8" width="125" height="100" stroke="#173529" stroke-width="15"/>
<rect x="258" y="208" width="125" height="100" stroke="#173529" stroke-width="15"/>
<rect x="258" y="108" width="125" height="100" stroke="#173529" stroke-width="15"/>
<rect x="383" y="8" width="125" height="100" stroke="#173529" stroke-width="15"/>
<rect x="383" y="208" width="125" height="100" stroke="#173529" stroke-width="15"/>
<rect x="383" y="108" width="125" height="100" stroke="#173529" stroke-width="15"/>
</svg>
